<svg width="40" height="40" viewBox="0 0 40 40" fill="none" xmlns="http://www.w3.org/2000/svg">
<path d="M19.9998 9.83342C21.9332 9.83342 23.4998 11.4001 23.4998 13.3334C23.4998 15.2667 21.9332 16.8334 19.9998 16.8334C18.0665 16.8334 16.4998 15.2667 16.4998 13.3334C16.4998 11.4001 18.0665 9.83342 19.9998 9.83342ZM19.9998 24.8334C24.9498 24.8334 30.1665 27.2667 30.1665 28.3334V30.1667H9.83317V28.3334C9.83317 27.2667 15.0498 24.8334 19.9998 24.8334ZM19.9998 6.66675C16.3165 6.66675 13.3332 9.65008 13.3332 13.3334C13.3332 17.0167 16.3165 20.0001 19.9998 20.0001C23.6832 20.0001 26.6665 17.0167 26.6665 13.3334C26.6665 9.65008 23.6832 6.66675 19.9998 6.66675ZM19.9998 21.6667C15.5498 21.6667 6.6665 23.9001 6.6665 28.3334V31.6667C6.6665 32.5834 7.4165 33.3334 8.33317 33.3334H31.6665C32.5832 33.3334 33.3332 32.5834 33.3332 31.6667V28.3334C33.3332 23.9001 24.4498 21.6667 19.9998 21.6667Z" fill="#5A69F2"/>
</svg>
