<svg width="152" height="149" viewBox="0 0 152 149" fill="none" xmlns="http://www.w3.org/2000/svg">
<rect width="152" height="149" fill="#C6C6C6"/>
<g id="Pro Learn - Online Courses Landing Page">
<g id="Features">
<rect width="1440" height="552" transform="translate(-244 -144)" fill="white"/>
<g id="Card" filter="url(#filter0_d_0_1)">
<rect x="-146" y="-64" width="1244" height="392" rx="16" fill="#5A69F2"/>
<g id="Card_2">
<g clip-path="url(#clip0_0_1)">
<g id="Icon" filter="url(#filter1_d_0_1)">
<rect x="32" y="24" width="80" height="80" rx="16" fill="#F9F9F9"/>
<g id="Group 19145">
<path id="Vector" d="M92.0381 68.7355L87.7506 60.1675C87.7243 57.6862 87.1954 55.2359 86.1957 52.9647C85.196 50.6935 83.7463 48.6485 81.9343 46.9532C80.1222 45.2579 77.9853 43.9475 75.6526 43.1011C73.3199 42.2547 70.8399 41.8899 68.3623 42.0288C63.7032 42.3401 59.3315 44.392 56.1152 47.7772C52.8989 51.1624 51.0732 55.6333 51.0006 60.3023C50.9783 63.149 51.6231 65.9615 52.8833 68.5142C54.1436 71.0669 55.9842 73.2889 58.2578 75.0023C59.1902 75.7197 59.906 76.681 60.3262 77.7798C60.7464 78.8787 60.8545 80.0723 60.6387 81.2288C60.5993 81.4509 60.6472 81.6797 60.7724 81.8673C60.8976 82.055 61.0904 82.187 61.3107 82.2359L77.0607 85.7359C77.189 85.7644 77.3221 85.7637 77.4501 85.7337C77.5781 85.7037 77.6977 85.6453 77.8 85.5627C77.9024 85.4801 77.9848 85.3756 78.0411 85.2568C78.0975 85.1381 78.1263 85.0081 78.1256 84.8766V79.6266C78.1256 79.3946 78.2177 79.172 78.3818 79.0079C78.5459 78.8438 78.7685 78.7516 79.0006 78.7516H85.1256C85.8218 78.7516 86.4894 78.4751 86.9817 77.9828C87.474 77.4905 87.7506 76.8228 87.7506 76.1266V70.0016H91.2506C91.4001 70.0025 91.5474 69.9649 91.6783 69.8927C91.8092 69.8204 91.9194 69.7158 91.9984 69.5888C92.0773 69.4618 92.1225 69.3167 92.1294 69.1673C92.1364 69.0179 92.1049 68.8693 92.0381 68.7355ZM86.8756 68.2516C86.6435 68.2516 86.4209 68.3438 86.2568 68.5079C86.0928 68.672 86.0006 68.8946 86.0006 69.1266V76.1266C86.0006 76.3587 85.9084 76.5813 85.7443 76.7454C85.5802 76.9095 85.3576 77.0016 85.1256 77.0016H79.0006C78.3044 77.0016 77.6367 77.2782 77.1444 77.7705C76.6521 78.2628 76.3756 78.9304 76.3756 79.6266V83.7855L62.4674 80.695C62.5775 79.3444 62.3468 77.9878 61.7965 76.7495C61.2461 75.5112 60.3937 74.4309 59.3174 73.6075C57.2604 72.0577 55.595 70.0476 54.4547 67.7383C53.3143 65.429 52.7307 62.8847 52.7506 60.3093C52.8156 56.0854 54.4669 52.0404 57.3764 48.9777C60.2859 45.915 64.2409 44.0585 68.4559 43.777C70.7136 43.6502 72.9733 43.9856 75.0968 44.7626C77.2203 45.5397 79.1628 46.7421 80.8053 48.2961C82.4478 49.8502 83.7558 51.7232 84.6492 53.8004C85.5425 55.8777 86.0023 58.1154 86.0006 60.3766C86.0004 60.5125 86.0322 60.6465 86.0933 60.7678L89.8348 68.2516H86.8756Z" fill="#5A69F2"/>
<path id="Vector_2" d="M81.4504 56.3516L76.2004 49.3516C76.0174 49.1536 75.7685 49.0292 75.5004 49.0016H63.2504C62.9802 49.0222 62.729 49.1479 62.5504 49.3516L57.3004 56.3516C57.1893 56.5102 57.1314 56.7 57.1352 56.8936C57.139 57.0872 57.2042 57.2746 57.3214 57.4287L68.6964 71.4287C68.7784 71.5297 68.8819 71.611 68.9994 71.6669C69.1168 71.7228 69.2453 71.7518 69.3754 71.7518C69.5054 71.7518 69.6339 71.7228 69.7513 71.6669C69.8688 71.611 69.9723 71.5297 70.0544 71.4287L81.4294 57.4287C81.547 57.2747 81.6124 57.0873 81.6162 56.8936C81.62 56.6999 81.5619 56.51 81.4504 56.3516ZM74.334 50.7516L72.8027 56.0016H65.948L64.4167 50.7516H74.334ZM62.9004 51.8016L64.1254 56.0016H59.7504L62.9004 51.8016ZM59.8379 57.7516H64.6346L67.3209 66.9618L59.8379 57.7516ZM69.3754 67.752L66.459 57.7516H72.2917L69.3754 67.752ZM71.429 66.9645L74.1152 57.7516H78.9129L71.429 66.9645ZM74.6254 56.0016L75.8504 51.8016L79.0004 56.0016H74.6254Z" fill="#5A69F2"/>
</g>
</g>
<g id="Frame 3">
<path id="Learn New Skills" d="M-31.624 150.4H-27.62V166.5H-19.808V170H-31.624V150.4ZM-11.7746 170.28C-13.1746 170.28 -14.3972 170 -15.4426 169.44C-16.4879 168.88 -17.2999 168.105 -17.8786 167.116C-18.4386 166.108 -18.7186 164.923 -18.7186 163.56C-18.7186 162.179 -18.4386 160.993 -17.8786 160.004C-17.2999 158.996 -16.4879 158.221 -15.4426 157.68C-14.3972 157.12 -13.1652 156.84 -11.7466 156.84C-10.3279 156.84 -9.12391 157.101 -8.13458 157.624C-7.12658 158.128 -6.36124 158.875 -5.83858 159.864C-5.31591 160.835 -5.05458 162.011 -5.05458 163.392C-5.05458 163.56 -5.06391 163.737 -5.08258 163.924C-5.08258 164.111 -5.09191 164.26 -5.11058 164.372H-16.6466V162.132H-8.27458L-9.25458 163.42C-9.17991 163.308 -9.11458 163.159 -9.05858 162.972C-8.98391 162.767 -8.94658 162.599 -8.94658 162.468C-8.94658 161.833 -9.06791 161.292 -9.31058 160.844C-9.53458 160.396 -9.86124 160.041 -10.2906 159.78C-10.7199 159.519 -11.2239 159.388 -11.8026 159.388C-12.5119 159.388 -13.1092 159.547 -13.5946 159.864C-14.0612 160.163 -14.4252 160.62 -14.6866 161.236C-14.9292 161.833 -15.0599 162.58 -15.0786 163.476C-15.0786 164.335 -14.9572 165.063 -14.7146 165.66C-14.4532 166.257 -14.0706 166.715 -13.5666 167.032C-13.0626 167.349 -12.4559 167.508 -11.7466 167.508C-10.9439 167.508 -10.2626 167.359 -9.70258 167.06C-9.12391 166.743 -8.64791 166.276 -8.27458 165.66L-5.11058 166.64C-5.78258 167.853 -6.67858 168.768 -7.79858 169.384C-8.89991 169.981 -10.2252 170.28 -11.7746 170.28ZM0.256672 165.996C0.256672 166.369 0.350005 166.696 0.536672 166.976C0.723339 167.237 0.975339 167.443 1.29267 167.592C1.62867 167.723 1.99267 167.788 2.38467 167.788C2.94467 167.788 3.44867 167.676 3.89667 167.452C4.34467 167.209 4.70867 166.873 4.98867 166.444C5.26867 165.996 5.40867 165.464 5.40867 164.848L5.85667 166.528C5.85667 167.349 5.62334 168.04 5.15667 168.6C4.70867 169.16 4.12067 169.58 3.39267 169.86C2.68334 170.14 1.93667 170.28 1.15267 170.28C0.350005 170.28 -0.396661 170.121 -1.08733 169.804C-1.77799 169.487 -2.33799 169.029 -2.76733 168.432C-3.17799 167.816 -3.38333 167.069 -3.38333 166.192C-3.38333 164.941 -2.94466 163.952 -2.06733 163.224C-1.18999 162.496 0.0513388 162.132 1.65667 162.132C2.47801 162.132 3.19667 162.216 3.81267 162.384C4.44734 162.552 4.97934 162.757 5.40867 163C5.83801 163.243 6.14601 163.476 6.33267 163.7V165.38C5.82867 165.007 5.25934 164.727 4.62467 164.54C4.00867 164.353 3.35534 164.26 2.66467 164.26C2.10467 164.26 1.64734 164.335 1.29267 164.484C0.938005 164.615 0.676672 164.811 0.508672 165.072C0.340672 165.315 0.256672 165.623 0.256672 165.996ZM-1.14333 160.76L-2.48733 158.296C-1.81533 157.941 -0.993995 157.605 -0.0233278 157.288C0.947339 156.952 2.03001 156.784 3.22467 156.784C4.32601 156.784 5.30601 156.943 6.16467 157.26C7.02334 157.577 7.69534 158.044 8.18067 158.66C8.66601 159.257 8.90867 159.995 8.90867 160.872V170H5.40867V161.628C5.40867 161.273 5.35267 160.975 5.24067 160.732C5.12867 160.471 4.95134 160.256 4.70867 160.088C4.48467 159.92 4.21401 159.799 3.89667 159.724C3.57934 159.649 3.22467 159.612 2.83267 159.612C2.23534 159.612 1.66601 159.677 1.12467 159.808C0.583339 159.939 0.116672 160.097 -0.275328 160.284C-0.667328 160.471 -0.956661 160.629 -1.14333 160.76ZM15.8382 157.12V170H12.2822V157.12H15.8382ZM19.6182 160.9C19.3756 160.676 19.1236 160.508 18.8622 160.396C18.6196 160.265 18.3116 160.2 17.9382 160.2C17.4902 160.2 17.1076 160.321 16.7902 160.564C16.4729 160.807 16.2302 161.152 16.0622 161.6C15.9129 162.029 15.8382 162.552 15.8382 163.168L14.8302 162.16C14.8302 161.133 15.0262 160.228 15.4182 159.444C15.8102 158.641 16.3236 158.007 16.9582 157.54C17.5929 157.055 18.2462 156.812 18.9182 156.812C19.3849 156.812 19.8236 156.896 20.2342 157.064C20.6636 157.232 21.0089 157.484 21.2702 157.82L19.6182 160.9ZM31.5084 162.16C31.5084 161.301 31.3404 160.648 31.0044 160.2C30.6684 159.752 30.1271 159.528 29.3804 159.528C28.8764 159.528 28.4284 159.64 28.0364 159.864C27.6444 160.069 27.3457 160.368 27.1404 160.76C26.9351 161.152 26.8324 161.619 26.8324 162.16V170H23.1924V157.12H26.8324V159.08C27.2244 158.352 27.7377 157.801 28.3724 157.428C29.0257 157.036 29.8097 156.84 30.7244 156.84C32.2551 156.84 33.3937 157.279 34.1404 158.156C34.8871 159.015 35.2604 160.219 35.2604 161.768V170H31.5084V162.16ZM61.5075 150.4H65.3715V170.98L51.4275 157.848V170H47.5635V149.42L61.5075 162.552V150.4ZM75.37 170.28C73.97 170.28 72.7473 170 71.702 169.44C70.6566 168.88 69.8446 168.105 69.266 167.116C68.706 166.108 68.426 164.923 68.426 163.56C68.426 162.179 68.706 160.993 69.266 160.004C69.8446 158.996 70.6566 158.221 71.702 157.68C72.7473 157.12 73.9793 156.84 75.398 156.84C76.8166 156.84 78.0206 157.101 79.01 157.624C80.018 158.128 80.7833 158.875 81.306 159.864C81.8286 160.835 82.09 162.011 82.09 163.392C82.09 163.56 82.0806 163.737 82.062 163.924C82.062 164.111 82.0526 164.26 82.034 164.372H70.498V162.132H78.87L77.89 163.42C77.9646 163.308 78.03 163.159 78.086 162.972C78.1606 162.767 78.198 162.599 78.198 162.468C78.198 161.833 78.0766 161.292 77.834 160.844C77.61 160.396 77.2833 160.041 76.854 159.78C76.4246 159.519 75.9206 159.388 75.342 159.388C74.6326 159.388 74.0353 159.547 73.55 159.864C73.0833 160.163 72.7193 160.62 72.458 161.236C72.2153 161.833 72.0846 162.58 72.066 163.476C72.066 164.335 72.1873 165.063 72.43 165.66C72.6913 166.257 73.074 166.715 73.578 167.032C74.082 167.349 74.6886 167.508 75.398 167.508C76.2006 167.508 76.882 167.359 77.442 167.06C78.0206 166.743 78.4966 166.276 78.87 165.66L82.034 166.64C81.362 167.853 80.466 168.768 79.346 169.384C78.2446 169.981 76.9193 170.28 75.37 170.28ZM82.511 157.12H86.375L89.203 164.26L92.843 156.14L96.623 164.288L99.479 157.12H103.315L97.015 170.868L92.871 162.664L88.839 170.868L82.511 157.12ZM115.471 163.42C115.881 164.148 116.329 164.783 116.815 165.324C117.319 165.865 117.869 166.285 118.467 166.584C119.064 166.883 119.708 167.032 120.399 167.032C121.201 167.032 121.855 166.827 122.359 166.416C122.863 166.005 123.115 165.445 123.115 164.736C123.115 164.12 122.956 163.625 122.639 163.252C122.34 162.879 121.883 162.552 121.267 162.272C120.669 161.973 119.932 161.656 119.055 161.32C118.588 161.152 118.047 160.928 117.431 160.648C116.833 160.349 116.264 159.976 115.723 159.528C115.181 159.061 114.733 158.501 114.379 157.848C114.024 157.176 113.847 156.373 113.847 155.44C113.847 154.32 114.127 153.359 114.687 152.556C115.265 151.735 116.04 151.109 117.011 150.68C118 150.232 119.101 150.008 120.315 150.008C121.565 150.008 122.639 150.223 123.535 150.652C124.449 151.063 125.205 151.595 125.803 152.248C126.419 152.883 126.895 153.545 127.231 154.236L124.095 155.972C123.833 155.505 123.516 155.085 123.143 154.712C122.788 154.32 122.377 154.012 121.911 153.788C121.444 153.545 120.912 153.424 120.315 153.424C119.531 153.424 118.943 153.611 118.551 153.984C118.159 154.339 117.963 154.759 117.963 155.244C117.963 155.729 118.121 156.159 118.439 156.532C118.756 156.887 119.241 157.232 119.895 157.568C120.548 157.885 121.369 158.212 122.359 158.548C122.993 158.772 123.6 159.052 124.179 159.388C124.776 159.724 125.308 160.135 125.775 160.62C126.26 161.087 126.633 161.647 126.895 162.3C127.175 162.935 127.315 163.672 127.315 164.512C127.315 165.464 127.128 166.313 126.755 167.06C126.381 167.807 125.868 168.441 125.215 168.964C124.561 169.468 123.824 169.851 123.003 170.112C122.2 170.392 121.351 170.532 120.455 170.532C119.26 170.532 118.14 170.308 117.095 169.86C116.068 169.393 115.172 168.768 114.407 167.984C113.641 167.2 113.044 166.351 112.615 165.436L115.471 163.42ZM130.159 148.16H133.659V170H130.159V148.16ZM138.391 157.12H142.731L137.187 162.44L143.291 170H138.979L132.847 162.44L138.391 157.12ZM145.032 152.136C145.032 151.539 145.247 151.053 145.676 150.68C146.106 150.288 146.619 150.092 147.216 150.092C147.814 150.092 148.318 150.288 148.728 150.68C149.158 151.053 149.372 151.539 149.372 152.136C149.372 152.715 149.158 153.2 148.728 153.592C148.318 153.984 147.814 154.18 147.216 154.18C146.619 154.18 146.106 153.984 145.676 153.592C145.247 153.2 145.032 152.715 145.032 152.136ZM145.424 157.12H148.952V170H145.424V157.12ZM152.802 148.16H156.442V170H152.802V148.16ZM160.021 148.16H163.661V170H160.021V148.16ZM167.883 165.548C168.425 166.052 168.929 166.463 169.395 166.78C169.862 167.079 170.301 167.303 170.711 167.452C171.141 167.601 171.542 167.676 171.915 167.676C172.401 167.676 172.774 167.573 173.035 167.368C173.297 167.144 173.427 166.845 173.427 166.472C173.427 166.136 173.315 165.856 173.091 165.632C172.886 165.389 172.578 165.175 172.167 164.988C171.757 164.801 171.234 164.605 170.599 164.4C170.002 164.176 169.423 163.915 168.863 163.616C168.303 163.299 167.837 162.888 167.463 162.384C167.109 161.861 166.931 161.199 166.931 160.396C166.931 159.631 167.137 158.987 167.547 158.464C167.958 157.923 168.509 157.521 169.199 157.26C169.909 156.98 170.693 156.84 171.551 156.84C172.279 156.84 172.961 156.933 173.595 157.12C174.23 157.307 174.818 157.559 175.359 157.876C175.901 158.175 176.377 158.529 176.787 158.94L175.191 161.18C174.725 160.676 174.165 160.265 173.511 159.948C172.877 159.631 172.251 159.472 171.635 159.472C171.225 159.472 170.898 159.556 170.655 159.724C170.431 159.873 170.319 160.107 170.319 160.424C170.319 160.704 170.431 160.956 170.655 161.18C170.898 161.385 171.234 161.572 171.663 161.74C172.111 161.908 172.615 162.113 173.175 162.356C173.866 162.617 174.501 162.916 175.079 163.252C175.677 163.569 176.153 163.971 176.507 164.456C176.862 164.941 177.039 165.576 177.039 166.36C177.039 167.648 176.619 168.656 175.779 169.384C174.939 170.093 173.782 170.448 172.307 170.448C171.393 170.448 170.553 170.327 169.787 170.084C169.041 169.841 168.359 169.524 167.743 169.132C167.146 168.721 166.605 168.283 166.119 167.816L167.883 165.548Z" fill="white"/>
</g>
</g>
</g>
</g>
</g>
</g>
<defs>
<filter id="filter0_d_0_1" x="-178" y="-91" width="1316" height="464" filterUnits="userSpaceOnUse" color-interpolation-filters="sRGB">
<feFlood flood-opacity="0" result="BackgroundImageFix"/>
<feColorMatrix in="SourceAlpha" type="matrix" values="0 0 0 0 0 0 0 0 0 0 0 0 0 0 0 0 0 0 127 0" result="hardAlpha"/>
<feOffset dx="4" dy="9"/>
<feGaussianBlur stdDeviation="18"/>
<feComposite in2="hardAlpha" operator="out"/>
<feColorMatrix type="matrix" values="0 0 0 0 0 0 0 0 0 0 0 0 0 0 0 0 0 0 0.07 0"/>
<feBlend mode="normal" in2="BackgroundImageFix" result="effect1_dropShadow_0_1"/>
<feBlend mode="normal" in="SourceGraphic" in2="effect1_dropShadow_0_1" result="shape"/>
</filter>
<filter id="filter1_d_0_1" x="0" y="-3" width="152" height="152" filterUnits="userSpaceOnUse" color-interpolation-filters="sRGB">
<feFlood flood-opacity="0" result="BackgroundImageFix"/>
<feColorMatrix in="SourceAlpha" type="matrix" values="0 0 0 0 0 0 0 0 0 0 0 0 0 0 0 0 0 0 127 0" result="hardAlpha"/>
<feOffset dx="4" dy="9"/>
<feGaussianBlur stdDeviation="18"/>
<feComposite in2="hardAlpha" operator="out"/>
<feColorMatrix type="matrix" values="0 0 0 0 0 0 0 0 0 0 0 0 0 0 0 0 0 0 0.07 0"/>
<feBlend mode="normal" in2="BackgroundImageFix" result="effect1_dropShadow_0_1"/>
<feBlend mode="normal" in="SourceGraphic" in2="effect1_dropShadow_0_1" result="shape"/>
</filter>
<clipPath id="clip0_0_1">
<rect x="-122" width="388" height="264" rx="16" fill="white"/>
</clipPath>
</defs>
</svg>
