<svg width="152" height="149" viewBox="0 0 152 149" fill="none" xmlns="http://www.w3.org/2000/svg">
<rect width="152" height="149" fill="#C6C6C6"/>
<rect width="1440" height="552" transform="translate(-648 -144)" fill="white"/>
<g filter="url(#filter0_d_0_1)">
<rect x="-550" y="-64" width="1244" height="392" rx="16" fill="#5A69F2"/>
<g clip-path="url(#clip0_0_1)">
<g filter="url(#filter1_d_0_1)">
<rect x="32" y="24" width="80" height="80" rx="16" fill="#F9F9F9"/>
<path d="M89.5 56.241H79.875C79.1788 56.241 78.5111 56.5175 78.0188 57.0098C77.5266 57.5021 77.25 58.1698 77.25 58.866V66.027C76.9698 65.9233 76.6738 65.8689 76.375 65.866H66.75C66.0538 65.866 65.3861 66.1425 64.8938 66.6348C64.4016 67.1271 64.125 67.7948 64.125 68.491V75.652C63.8448 75.5483 63.5488 75.4939 63.25 75.491H53.625C52.9288 75.491 52.2611 75.7675 51.7688 76.2598C51.2766 76.7521 51 77.4198 51 78.116V82.491C51 82.723 51.0922 82.9456 51.2563 83.1097C51.4204 83.2738 51.6429 83.366 51.875 83.366H91.25C91.4821 83.366 91.7046 83.2738 91.8687 83.1097C92.0328 82.9456 92.125 82.723 92.125 82.491V58.866C92.125 58.1698 91.8484 57.5021 91.3562 57.0098C90.8639 56.5175 90.1962 56.241 89.5 56.241ZM64.125 81.616H52.75V78.116C52.75 77.8839 52.8422 77.6613 53.0063 77.4972C53.1704 77.3332 53.3929 77.241 53.625 77.241H63.25C63.4821 77.241 63.7046 77.3332 63.8687 77.4972C64.0328 77.6613 64.125 77.8839 64.125 78.116V81.616ZM77.25 81.616H65.875V68.491C65.875 68.2589 65.9672 68.0363 66.1313 67.8722C66.2954 67.7082 66.5179 67.616 66.75 67.616H76.375C76.6071 67.616 76.8296 67.7082 76.9937 67.8722C77.1578 68.0363 77.25 68.2589 77.25 68.491V81.616ZM90.375 81.616H79V58.866C79 58.6339 79.0922 58.4113 79.2563 58.2472C79.4204 58.0832 79.6429 57.991 79.875 57.991H89.5C89.7321 57.991 89.9546 58.0832 90.1187 58.2472C90.2828 58.4113 90.375 58.6339 90.375 58.866V81.616Z" fill="#5A69F2"/>
<path d="M51.875 69.366H58.875C59.5712 69.366 60.2389 69.0894 60.7312 68.5972C61.2234 68.1049 61.5 67.4372 61.5 66.741V60.6475C61.5 60.4154 61.5922 60.1929 61.7563 60.0288C61.9204 59.8647 62.1429 59.7725 62.375 59.7725H72C72.6962 59.7725 73.3639 59.4959 73.8562 59.0037C74.3484 58.5114 74.625 57.8437 74.625 57.1475V50.991C74.625 50.7589 74.7172 50.5364 74.8813 50.3723C75.0454 50.2082 75.2679 50.116 75.5 50.116H89.1378L86.2564 52.9974C86.097 53.1624 86.0088 53.3834 86.0108 53.6128C86.0128 53.8423 86.1048 54.0617 86.267 54.224C86.4293 54.3862 86.6487 54.4782 86.8782 54.4802C87.1076 54.4822 87.3286 54.394 87.4936 54.2346L91.8686 49.8596C91.9501 49.7783 92.0148 49.6818 92.0589 49.5755C92.103 49.4692 92.1257 49.3552 92.1257 49.2401C92.1257 49.125 92.103 49.0111 92.0589 48.9048C92.0148 48.7985 91.9501 48.7019 91.8686 48.6206L87.4936 44.2456C87.3286 44.0862 87.1076 43.998 86.8782 44C86.6487 44.002 86.4293 44.094 86.267 44.2563C86.1048 44.4185 86.0128 44.638 86.0108 44.8674C86.0088 45.0968 86.097 45.3178 86.2564 45.4829L89.1378 48.366H75.5C74.8038 48.366 74.1361 48.6426 73.6438 49.1348C73.1516 49.6271 72.875 50.2948 72.875 50.991V57.1475C72.875 57.3796 72.7828 57.6021 72.6187 57.7662C72.4546 57.9303 72.2321 58.0225 72 58.0225H62.375C61.6788 58.0225 61.0111 58.2991 60.5188 58.7913C60.0266 59.2836 59.75 59.9513 59.75 60.6475V66.741C59.75 66.9731 59.6578 67.1956 59.4937 67.3597C59.3296 67.5238 59.1071 67.616 58.875 67.616H51.875C51.6429 67.616 51.4204 67.7082 51.2563 67.8723C51.0922 68.0364 51 68.2589 51 68.491C51 68.7231 51.0922 68.9456 51.2563 69.1097C51.4204 69.2738 51.6429 69.366 51.875 69.366Z" fill="#5A69F2"/>
</g>
</g>
</g>
<defs>
<filter id="filter0_d_0_1" x="-582" y="-91" width="1316" height="464" filterUnits="userSpaceOnUse" color-interpolation-filters="sRGB">
<feFlood flood-opacity="0" result="BackgroundImageFix"/>
<feColorMatrix in="SourceAlpha" type="matrix" values="0 0 0 0 0 0 0 0 0 0 0 0 0 0 0 0 0 0 127 0" result="hardAlpha"/>
<feOffset dx="4" dy="9"/>
<feGaussianBlur stdDeviation="18"/>
<feComposite in2="hardAlpha" operator="out"/>
<feColorMatrix type="matrix" values="0 0 0 0 0 0 0 0 0 0 0 0 0 0 0 0 0 0 0.07 0"/>
<feBlend mode="normal" in2="BackgroundImageFix" result="effect1_dropShadow_0_1"/>
<feBlend mode="normal" in="SourceGraphic" in2="effect1_dropShadow_0_1" result="shape"/>
</filter>
<filter id="filter1_d_0_1" x="0" y="-3" width="152" height="152" filterUnits="userSpaceOnUse" color-interpolation-filters="sRGB">
<feFlood flood-opacity="0" result="BackgroundImageFix"/>
<feColorMatrix in="SourceAlpha" type="matrix" values="0 0 0 0 0 0 0 0 0 0 0 0 0 0 0 0 0 0 127 0" result="hardAlpha"/>
<feOffset dx="4" dy="9"/>
<feGaussianBlur stdDeviation="18"/>
<feComposite in2="hardAlpha" operator="out"/>
<feColorMatrix type="matrix" values="0 0 0 0 0 0 0 0 0 0 0 0 0 0 0 0 0 0 0.07 0"/>
<feBlend mode="normal" in2="BackgroundImageFix" result="effect1_dropShadow_0_1"/>
<feBlend mode="normal" in="SourceGraphic" in2="effect1_dropShadow_0_1" result="shape"/>
</filter>
<clipPath id="clip0_0_1">
<rect x="-122" width="388" height="264" rx="16" fill="white"/>
</clipPath>
</defs>
</svg>
