<svg width="16" height="16" viewBox="0 0 16 16" fill="none" xmlns="http://www.w3.org/2000/svg">
<rect width="16" height="16" fill="#C6C6C6"/>
<g id="Pro Learn - Online Courses Landing Page">
<g id="Courses">
<rect width="1440" height="1226" transform="translate(-120 -541)" fill="white"/>
<g id="Card" filter="url(#filter0_d_0_1)">
<rect x="-22" y="-309" width="388" height="437" rx="16" fill="white"/>
<g id="Frame 23">
<g id="Information">
<g id="Frame 18">
<g id="Group 19129">
<path id="Vector" d="M12.6667 2.00033H9.88C9.6 1.22699 8.86667 0.666992 8 0.666992C7.13333 0.666992 6.4 1.22699 6.12 2.00033H3.33333C2.6 2.00033 2 2.60033 2 3.33366V12.667C2 13.4003 2.6 14.0003 3.33333 14.0003H12.6667C13.4 14.0003 14 13.4003 14 12.667V3.33366C14 2.60033 13.4 2.00033 12.6667 2.00033ZM8 2.00033C8.36667 2.00033 8.66667 2.30033 8.66667 2.66699C8.66667 3.03366 8.36667 3.33366 8 3.33366C7.63333 3.33366 7.33333 3.03366 7.33333 2.66699C7.33333 2.30033 7.63333 2.00033 8 2.00033ZM8.66667 11.3337H5.33333C4.96667 11.3337 4.66667 11.0337 4.66667 10.667C4.66667 10.3003 4.96667 10.0003 5.33333 10.0003H8.66667C9.03333 10.0003 9.33333 10.3003 9.33333 10.667C9.33333 11.0337 9.03333 11.3337 8.66667 11.3337ZM10.6667 8.66699H5.33333C4.96667 8.66699 4.66667 8.36699 4.66667 8.00033C4.66667 7.63366 4.96667 7.33366 5.33333 7.33366H10.6667C11.0333 7.33366 11.3333 7.63366 11.3333 8.00033C11.3333 8.36699 11.0333 8.66699 10.6667 8.66699ZM10.6667 6.00033H5.33333C4.96667 6.00033 4.66667 5.70033 4.66667 5.33366C4.66667 4.96699 4.96667 4.66699 5.33333 4.66699H10.6667C11.0333 4.66699 11.3333 4.96699 11.3333 5.33366C11.3333 5.70033 11.0333 6.00033 10.6667 6.00033Z" fill="#5A69F2"/>
</g>
</g>
</g>
</g>
</g>
</g>
</g>
<defs>
<filter id="filter0_d_0_1" x="-54" y="-336" width="460" height="509" filterUnits="userSpaceOnUse" color-interpolation-filters="sRGB">
<feFlood flood-opacity="0" result="BackgroundImageFix"/>
<feColorMatrix in="SourceAlpha" type="matrix" values="0 0 0 0 0 0 0 0 0 0 0 0 0 0 0 0 0 0 127 0" result="hardAlpha"/>
<feOffset dx="4" dy="9"/>
<feGaussianBlur stdDeviation="18"/>
<feComposite in2="hardAlpha" operator="out"/>
<feColorMatrix type="matrix" values="0 0 0 0 0 0 0 0 0 0 0 0 0 0 0 0 0 0 0.07 0"/>
<feBlend mode="normal" in2="BackgroundImageFix" result="effect1_dropShadow_0_1"/>
<feBlend mode="normal" in="SourceGraphic" in2="effect1_dropShadow_0_1" result="shape"/>
</filter>
</defs>
</svg>
